<svg width="120" height="140" viewBox="0 0 120 140" fill="none" xmlns="http://www.w3.org/2000/svg">
<rect width="120" height="140" fill="white"/>
<path d="M47.5799 9.50476C52.0579 9.50476 55.7253 9.83873 58.5723 10.4966C61.4192 11.1594 64.4293 12.3182 67.6074 13.9779C68.0127 14.2613 68.2697 14.4941 68.3784 14.6661C68.4822 14.8281 68.5662 15.3644 68.6354 16.2651L69.8612 28.1464C69.8612 28.3488 69.6684 28.4703 69.2879 28.5107C68.9172 28.5411 68.6997 28.45 68.6354 28.2476C67.1428 22.4891 64.6665 18.1678 61.2018 15.2936C57.7469 12.4093 53.2046 10.9621 47.5799 10.9621C41.6192 10.9621 36.3899 12.2524 31.8822 14.8281C27.3746 17.3936 23.8802 21.0521 21.4039 25.7985C18.9227 30.55 17.6871 36.0807 17.6871 42.3958C17.6871 48.296 19.0562 53.7913 21.7993 58.8919C24.5524 63.9926 28.2494 68.0559 32.8905 71.0768C37.5267 74.1028 42.4891 75.6107 47.7776 75.6107C59.032 75.6107 66.2234 69.9585 69.3472 58.6491C69.3472 58.5023 69.654 58.5 70 58.5C70.4745 58.5 70.5729 58.7503 70.5729 58.7503L69.7426 69.7814C69.6734 70.6214 69.5745 71.1375 69.446 71.34C69.3126 71.5424 69.0407 71.7852 68.6354 72.0686C65.1015 73.9459 61.7949 75.2464 58.7107 75.9751C55.6265 76.7037 51.9492 77.0681 47.6788 77.0681C40.6257 77.0681 34.3387 75.631 28.8178 72.7568C23.292 69.8725 18.9722 65.8092 15.8484 60.5719C12.7346 55.3245 11.1826 49.2979 11.1826 42.497C11.1826 35.9795 12.7346 30.2261 15.8484 25.2317C18.9722 20.2272 23.292 16.3562 28.8178 13.6136C34.3387 10.8761 40.5911 9.50476 47.5799 9.50476Z" fill="#3D3B3A"/>
<path d="M74.1347 126.969C72.1676 126.969 69.9681 126.858 67.5314 126.646C66.5824 126.575 65.4061 126.514 64.0123 126.443C62.6284 126.377 61.0912 126.342 59.4058 126.342L52.6839 126.443C51.468 126.514 49.7776 126.544 47.6029 126.544C47.4694 126.544 47.4052 126.337 47.4052 125.917C47.4052 125.502 47.4694 125.289 47.6029 125.289C50.2521 125.289 52.1995 125.123 53.4549 124.783C54.7054 124.434 55.5703 123.761 56.0448 122.759C56.5193 121.747 56.7566 120.199 56.7566 118.104V69.9111C56.7566 67.8364 56.5292 66.3082 56.0844 65.3367C55.6494 64.3651 54.8042 63.6921 53.5537 63.3126C52.2983 62.923 50.3509 62.7256 47.7017 62.7256C47.5683 62.7256 47.504 62.5232 47.504 62.1184C47.504 61.7035 47.5683 61.491 47.7017 61.491L52.6839 61.5922C55.5308 61.7288 57.7698 61.7946 59.4058 61.7946C61.7782 61.7946 64.1803 61.6934 66.622 61.491C69.5974 61.3442 71.6288 61.2683 72.7113 61.2683C79.8286 61.2683 86.1354 62.6599 91.6316 65.4379C97.1277 68.221 101.378 72.006 104.383 76.7929C107.398 81.5849 108.911 86.9638 108.911 92.9247C108.911 99.6598 107.334 105.611 104.186 110.777C101.032 115.948 96.8163 119.941 91.5327 122.759C86.2441 125.568 80.4464 126.969 74.1347 126.969ZM73.1265 125.613C78.8203 125.613 83.8667 124.434 88.2706 122.071C92.6843 119.713 96.1244 116.242 98.5907 111.668C101.067 107.083 102.308 101.598 102.308 95.2119C102.308 89.0992 101.131 83.5836 98.7884 78.655C96.4555 73.7315 93.0995 69.8301 88.7253 66.9559C84.361 64.0716 79.3344 62.6244 73.6405 62.6244C70.6453 62.6244 68.3519 62.8015 66.7604 63.1507C65.1787 63.5049 64.0123 64.2184 63.261 65.2962C62.5196 66.3639 62.1539 67.968 62.1539 70.1135V116.971C62.1539 119.05 62.4554 120.715 63.0633 121.97C63.6663 123.215 64.7487 124.131 66.3057 124.723C67.8725 125.32 70.1461 125.613 73.1265 125.613Z" fill="#3D3B3A"/>
<mask id="mask0_65_417" style="mask-type:luminance" maskUnits="userSpaceOnUse" x="28" y="42" width="52" height="71">
<path d="M28.7806 42.124H79.3929V112.076H28.7806V42.124Z" fill="white"/>
</mask>
<g mask="url(#mask0_65_417)">
<mask id="mask1_65_417" style="mask-type:luminance" maskUnits="userSpaceOnUse" x="29" y="42" width="51" height="69">
<path d="M63.8978 42.9083L79.1754 52.3455L44.6316 110.947L29.354 101.505L63.8978 42.9083Z" fill="white"/>
</mask>
<g mask="url(#mask1_65_417)">
<mask id="mask2_65_417" style="mask-type:luminance" maskUnits="userSpaceOnUse" x="29" y="42" width="51" height="69">
<path d="M63.8979 42.9083L79.1755 52.3455L44.6465 110.917L29.3689 101.48L63.8979 42.9083Z" fill="white"/>
</mask>
<g mask="url(#mask2_65_417)">
<path d="M63.8978 42.9083L79.1754 52.3455L44.6316 110.947L29.354 101.505L63.8978 42.9083Z" fill="white"/>
</g>
</g>
</g>
<mask id="mask3_65_417" style="mask-type:luminance" maskUnits="userSpaceOnUse" x="30" y="51" width="36" height="37">
<path d="M30.0459 51.1919H65.4745V87.4631H30.0459V51.1919Z" fill="white"/>
</mask>
<g mask="url(#mask3_65_417)">
<mask id="mask4_65_417" style="mask-type:luminance" maskUnits="userSpaceOnUse" x="30" y="52" width="35" height="35">
<path d="M43.7617 52.2343L64.5848 65.1022L51.7736 86.8306L30.9504 73.9677L43.7617 52.2343Z" fill="white"/>
</mask>
<g mask="url(#mask4_65_417)">
<mask id="mask5_65_417" style="mask-type:luminance" maskUnits="userSpaceOnUse" x="30" y="52" width="35" height="35">
<path d="M43.7615 52.2343L64.5847 65.1022L51.7784 86.8154L30.9602 73.9525L43.7615 52.2343Z" fill="white"/>
</mask>
<g mask="url(#mask5_65_417)">
<path d="M43.7617 52.2343L64.5848 65.1022L51.7736 86.8306L30.9504 73.9677L43.7617 52.2343Z" fill="white"/>
</g>
</g>
</g>
<mask id="mask6_65_417" style="mask-type:luminance" maskUnits="userSpaceOnUse" x="54" y="53" width="35" height="35">
<path d="M54.0867 53.7827H88.2499V87.4632H54.0867V53.7827Z" fill="white"/>
</mask>
<g mask="url(#mask6_65_417)">
<mask id="mask7_65_417" style="mask-type:luminance" maskUnits="userSpaceOnUse" x="55" y="54" width="33" height="33">
<path d="M66.7496 54.5519L87.6222 67.4502L76.185 86.8509L55.3124 73.9525L66.7496 54.5519Z" fill="white"/>
</mask>
<g mask="url(#mask7_65_417)">
<mask id="mask8_65_417" style="mask-type:luminance" maskUnits="userSpaceOnUse" x="55" y="54" width="33" height="33">
<path d="M66.7496 54.5519L87.5678 67.4199L76.1306 86.8155L55.3124 73.9525L66.7496 54.5519Z" fill="white"/>
</mask>
<g mask="url(#mask8_65_417)">
<path d="M66.7496 54.5519L87.548 67.4047L76.1108 86.8054L55.3124 73.9525L66.7496 54.5519Z" fill="white"/>
</g>
</g>
</g>
<path d="M23.8182 119.236L87.5678 26.306" stroke="#3D3B3A" stroke-width="2"/>
<line x1="30.584" y1="73.7226" x2="32.584" y2="70.7226" stroke="#3D3B3A"/>
</svg>
