<svg xmlns="http://www.w3.org/2000/svg" xmlns:xlink="http://www.w3.org/1999/xlink" width="500" zoomAndPan="magnify" viewBox="0 0 375 374.999991" height="500" preserveAspectRatio="xMidYMid meet" version="1.0"><defs><g/><clipPath id="a491638a0c"><path d="M 167 124 L 207 124 L 207 178 L 167 178 Z M 167 124 " clip-rule="nonzero"/></clipPath><clipPath id="b9c7cfa24d"><path d="M 194.753906 124.605469 L 206.828125 131.890625 L 179.527344 177.128906 L 167.453125 169.839844 Z M 194.753906 124.605469 " clip-rule="nonzero"/></clipPath><clipPath id="f76e85ced3"><path d="M 194.753906 124.605469 L 206.828125 131.890625 L 179.539062 177.105469 L 167.464844 169.820312 Z M 194.753906 124.605469 " clip-rule="nonzero"/></clipPath><clipPath id="89bea94406"><path d="M 168 131 L 196 131 L 196 159 L 168 159 Z M 168 131 " clip-rule="nonzero"/></clipPath><clipPath id="7716efb3ac"><path d="M 178.839844 131.804688 L 195.296875 141.738281 L 185.171875 158.511719 L 168.714844 148.582031 Z M 178.839844 131.804688 " clip-rule="nonzero"/></clipPath><clipPath id="89cbccc7f9"><path d="M 178.839844 131.804688 L 195.296875 141.738281 L 185.175781 158.5 L 168.722656 148.570312 Z M 178.839844 131.804688 " clip-rule="nonzero"/></clipPath><clipPath id="b5712c49e8"><path d="M 187 133 L 214 133 L 214 159 L 187 159 Z M 187 133 " clip-rule="nonzero"/></clipPath><clipPath id="5e9a4ea734"><path d="M 197.007812 133.59375 L 213.503906 143.550781 L 204.464844 158.527344 L 187.96875 148.570312 Z M 197.007812 133.59375 " clip-rule="nonzero"/></clipPath><clipPath id="6a8c26fe6a"><path d="M 197.007812 133.59375 L 213.460938 143.527344 L 204.421875 158.5 L 187.96875 148.570312 Z M 197.007812 133.59375 " clip-rule="nonzero"/></clipPath></defs><rect x="-37.5" width="450" fill="#ffffff" y="-37.499999" height="449.999989" fill-opacity="1"/><rect x="-37.5" width="450" fill="#ffffff" y="-37.499999" height="449.999989" fill-opacity="1"/><g fill="#3d3b3a" fill-opacity="1"><g transform="translate(65.084115, 238.401197)"><g><path d="M 6.734375 -11.78125 C 7.566406 -11.78125 8.375 -11.617188 9.15625 -11.296875 C 9.945312 -10.984375 10.628906 -10.539062 11.203125 -9.96875 L 10.046875 -8.53125 C 9.617188 -8.988281 9.113281 -9.351562 8.53125 -9.625 C 7.945312 -9.894531 7.359375 -10.03125 6.765625 -10.03125 C 5.597656 -10.03125 4.609375 -9.628906 3.796875 -8.828125 C 2.984375 -8.023438 2.578125 -7.050781 2.578125 -5.90625 C 2.578125 -4.738281 2.984375 -3.753906 3.796875 -2.953125 C 4.609375 -2.160156 5.597656 -1.765625 6.765625 -1.765625 C 7.984375 -1.765625 9.078125 -2.226562 10.046875 -3.15625 L 11.21875 -1.84375 C 10.613281 -1.25 9.90625 -0.78125 9.09375 -0.4375 C 8.289062 -0.09375 7.484375 0.078125 6.671875 0.078125 C 4.953125 0.078125 3.503906 -0.492188 2.328125 -1.640625 C 1.148438 -2.785156 0.5625 -4.203125 0.5625 -5.890625 C 0.5625 -7.546875 1.15625 -8.941406 2.34375 -10.078125 C 3.539062 -11.210938 5.003906 -11.78125 6.734375 -11.78125 Z M 6.734375 -11.78125 "/></g></g></g><g fill="#3d3b3a" fill-opacity="1"><g transform="translate(83.483252, 238.401197)"><g><path d="M 3.515625 -1.796875 L 8.59375 -1.796875 L 8.59375 0 L 1.546875 0 L 1.546875 -11.734375 L 3.515625 -11.734375 Z M 3.515625 -1.796875 "/></g></g></g><g fill="#3d3b3a" fill-opacity="1"><g transform="translate(99.148643, 238.401197)"><g><path d="M 9.125 -2.65625 L 3.203125 -2.65625 L 2.078125 0 L 0.015625 0 L 5.203125 -11.734375 L 7.21875 -11.734375 L 12.359375 0 L 10.25 0 Z M 8.359375 -4.40625 L 6.15625 -9.625 L 3.9375 -4.40625 Z M 8.359375 -4.40625 "/></g></g></g><g fill="#3d3b3a" fill-opacity="1"><g transform="translate(118.235401, 238.401197)"><g><path d="M 8.984375 0 L 6.84375 -3.546875 C 6.726562 -3.535156 6.546875 -3.53125 6.296875 -3.53125 L 3.515625 -3.53125 L 3.515625 0 L 1.546875 0 L 1.546875 -11.734375 L 6.296875 -11.734375 C 7.796875 -11.734375 8.957031 -11.382812 9.78125 -10.6875 C 10.613281 -9.988281 11.03125 -9.003906 11.03125 -7.734375 C 11.03125 -6.796875 10.820312 -6 10.40625 -5.34375 C 9.988281 -4.695312 9.382812 -4.222656 8.59375 -3.921875 L 11.234375 0 Z M 3.515625 -5.3125 L 6.296875 -5.3125 C 8.203125 -5.3125 9.15625 -6.097656 9.15625 -7.671875 C 9.15625 -9.191406 8.203125 -9.953125 6.296875 -9.953125 L 3.515625 -9.953125 Z M 3.515625 -5.3125 "/></g></g></g><g fill="#3d3b3a" fill-opacity="1"><g transform="translate(137.070597, 238.401197)"><g><path d="M 9.125 -2.65625 L 3.203125 -2.65625 L 2.078125 0 L 0.015625 0 L 5.203125 -11.734375 L 7.21875 -11.734375 L 12.359375 0 L 10.25 0 Z M 8.359375 -4.40625 L 6.15625 -9.625 L 3.9375 -4.40625 Z M 8.359375 -4.40625 "/></g></g></g><g fill="#3d3b3a" fill-opacity="1"><g transform="translate(156.157358, 238.401197)"><g/></g></g><g fill="#3d3b3a" fill-opacity="1"><g transform="translate(167.193835, 238.401197)"><g><path d="M 1.546875 -11.734375 L 6.359375 -11.734375 C 8.109375 -11.734375 9.554688 -11.179688 10.703125 -10.078125 C 11.847656 -8.972656 12.421875 -7.566406 12.421875 -5.859375 C 12.421875 -4.160156 11.84375 -2.757812 10.6875 -1.65625 C 9.539062 -0.550781 8.078125 0 6.296875 0 L 1.546875 0 Z M 3.515625 -9.953125 L 3.515625 -1.78125 L 6.40625 -1.78125 C 7.550781 -1.78125 8.503906 -2.160156 9.265625 -2.921875 C 10.035156 -3.691406 10.421875 -4.664062 10.421875 -5.84375 C 10.421875 -7.03125 10.023438 -8.007812 9.234375 -8.78125 C 8.453125 -9.5625 7.484375 -9.953125 6.328125 -9.953125 Z M 3.515625 -9.953125 "/></g></g></g><g fill="#3d3b3a" fill-opacity="1"><g transform="translate(186.901129, 238.401197)"><g><path d="M 9.921875 -9.953125 L 3.515625 -9.953125 L 3.515625 -6.796875 L 9.25 -6.796875 L 9.25 -5.015625 L 3.515625 -5.015625 L 3.515625 -1.78125 L 10.125 -1.78125 L 10.125 0 L 1.546875 0 L 1.546875 -11.734375 L 9.921875 -11.734375 Z M 9.921875 -9.953125 "/></g></g></g><g fill="#3d3b3a" fill-opacity="1"><g transform="translate(204.612625, 238.401197)"><g><path d="M 1.546875 -11.734375 L 6.640625 -11.734375 C 7.859375 -11.734375 8.816406 -11.472656 9.515625 -10.953125 C 10.222656 -10.429688 10.578125 -9.710938 10.578125 -8.796875 C 10.578125 -8.140625 10.390625 -7.578125 10.015625 -7.109375 C 9.648438 -6.648438 9.148438 -6.34375 8.515625 -6.1875 C 9.296875 -6.050781 9.910156 -5.71875 10.359375 -5.1875 C 10.804688 -4.664062 11.03125 -4.007812 11.03125 -3.21875 C 11.03125 -2.207031 10.648438 -1.414062 9.890625 -0.84375 C 9.128906 -0.28125 8.082031 0 6.75 0 L 1.546875 0 Z M 3.515625 -9.96875 L 3.515625 -6.875 L 6.53125 -6.875 C 7.164062 -6.875 7.660156 -7.015625 8.015625 -7.296875 C 8.367188 -7.578125 8.546875 -7.960938 8.546875 -8.453125 C 8.546875 -8.941406 8.367188 -9.316406 8.015625 -9.578125 C 7.671875 -9.835938 7.175781 -9.96875 6.53125 -9.96875 Z M 3.515625 -5.125 L 3.515625 -1.765625 L 6.53125 -1.765625 C 7.320312 -1.765625 7.929688 -1.910156 8.359375 -2.203125 C 8.785156 -2.503906 9 -2.925781 9 -3.46875 C 9 -3.976562 8.78125 -4.378906 8.34375 -4.671875 C 7.914062 -4.972656 7.3125 -5.125 6.53125 -5.125 Z M 3.515625 -5.125 "/></g></g></g><g fill="#3d3b3a" fill-opacity="1"><g transform="translate(223.1627, 238.401197)"><g><path d="M 8.984375 0 L 6.84375 -3.546875 C 6.726562 -3.535156 6.546875 -3.53125 6.296875 -3.53125 L 3.515625 -3.53125 L 3.515625 0 L 1.546875 0 L 1.546875 -11.734375 L 6.296875 -11.734375 C 7.796875 -11.734375 8.957031 -11.382812 9.78125 -10.6875 C 10.613281 -9.988281 11.03125 -9.003906 11.03125 -7.734375 C 11.03125 -6.796875 10.820312 -6 10.40625 -5.34375 C 9.988281 -4.695312 9.382812 -4.222656 8.59375 -3.921875 L 11.234375 0 Z M 3.515625 -5.3125 L 6.296875 -5.3125 C 8.203125 -5.3125 9.15625 -6.097656 9.15625 -7.671875 C 9.15625 -9.191406 8.203125 -9.953125 6.296875 -9.953125 L 3.515625 -9.953125 Z M 3.515625 -5.3125 "/></g></g></g><g fill="#3d3b3a" fill-opacity="1"><g transform="translate(241.99789, 238.401197)"><g><path d="M 11.515625 -11.734375 L 11.515625 -4.859375 C 11.515625 -3.328125 11.0625 -2.117188 10.15625 -1.234375 C 9.25 -0.359375 8.003906 0.078125 6.421875 0.078125 C 4.835938 0.078125 3.585938 -0.359375 2.671875 -1.234375 C 1.765625 -2.117188 1.3125 -3.328125 1.3125 -4.859375 L 1.3125 -11.734375 L 3.28125 -11.734375 L 3.28125 -4.859375 C 3.28125 -3.878906 3.5625 -3.101562 4.125 -2.53125 C 4.695312 -1.96875 5.46875 -1.6875 6.4375 -1.6875 C 7.394531 -1.6875 8.148438 -1.96875 8.703125 -2.53125 C 9.265625 -3.09375 9.546875 -3.867188 9.546875 -4.859375 L 9.546875 -11.734375 Z M 11.515625 -11.734375 "/></g></g></g><g fill="#3d3b3a" fill-opacity="1"><g transform="translate(261.520703, 238.401197)"><g><path d="M 6.359375 -3.90625 L 6.359375 0 L 4.390625 0 L 4.390625 -3.84375 L 0.015625 -11.734375 L 2.015625 -11.734375 L 5.359375 -6.015625 L 8.65625 -11.734375 L 10.65625 -11.734375 Z M 6.359375 -3.90625 "/></g></g></g><g fill="#3d3b3a" fill-opacity="1"><g transform="translate(278.91356, 238.401197)"><g><path d="M 11.71875 0 L 9.78125 0 L 3.515625 -8.421875 L 3.515625 0 L 1.546875 0 L 1.546875 -11.734375 L 3.484375 -11.734375 L 9.78125 -3.296875 L 9.78125 -11.734375 L 11.71875 -11.734375 Z M 11.71875 0 "/></g></g></g><g fill="#3d3b3a" fill-opacity="1"><g transform="translate(298.905981, 238.401197)"><g><path d="M 9.921875 -9.953125 L 3.515625 -9.953125 L 3.515625 -6.796875 L 9.25 -6.796875 L 9.25 -5.015625 L 3.515625 -5.015625 L 3.515625 -1.78125 L 10.125 -1.78125 L 10.125 0 L 1.546875 0 L 1.546875 -11.734375 L 9.921875 -11.734375 Z M 9.921875 -9.953125 "/></g></g></g><g fill="#3d3b3a" fill-opacity="1"><g transform="translate(149.154333, 149.928523)"><g><path d="M 32.703125 -51.109375 C 36.242188 -51.109375 39.140625 -50.851562 41.390625 -50.34375 C 43.640625 -49.832031 46.019531 -48.9375 48.53125 -47.65625 C 48.851562 -47.4375 49.054688 -47.257812 49.140625 -47.125 C 49.222656 -47 49.289062 -46.585938 49.34375 -45.890625 L 50.3125 -36.71875 C 50.3125 -36.5625 50.160156 -36.46875 49.859375 -36.4375 C 49.566406 -36.414062 49.394531 -36.484375 49.34375 -36.640625 C 48.164062 -41.085938 46.207031 -44.421875 43.46875 -46.640625 C 40.738281 -48.867188 37.148438 -49.984375 32.703125 -49.984375 C 27.992188 -49.984375 23.859375 -48.988281 20.296875 -47 C 16.734375 -45.019531 13.972656 -42.195312 12.015625 -38.53125 C 10.054688 -34.863281 9.078125 -30.59375 9.078125 -25.71875 C 9.078125 -21.164062 10.160156 -16.921875 12.328125 -12.984375 C 14.503906 -9.046875 17.425781 -5.910156 21.09375 -3.578125 C 24.757812 -1.242188 28.679688 -0.078125 32.859375 -0.078125 C 41.753906 -0.078125 47.4375 -4.441406 49.90625 -13.171875 C 49.90625 -13.285156 50.039062 -13.34375 50.3125 -13.34375 C 50.6875 -13.34375 50.875 -13.257812 50.875 -13.09375 L 50.21875 -4.578125 C 50.164062 -3.929688 50.085938 -3.53125 49.984375 -3.375 C 49.878906 -3.21875 49.664062 -3.03125 49.34375 -2.8125 C 46.550781 -1.363281 43.9375 -0.359375 41.5 0.203125 C 39.0625 0.765625 36.15625 1.046875 32.78125 1.046875 C 27.207031 1.046875 22.238281 -0.0625 17.875 -2.28125 C 13.507812 -4.507812 10.09375 -7.644531 7.625 -11.6875 C 5.164062 -15.738281 3.9375 -20.390625 3.9375 -25.640625 C 3.9375 -30.671875 5.164062 -35.113281 7.625 -38.96875 C 10.09375 -42.832031 13.507812 -45.820312 17.875 -47.9375 C 22.238281 -50.050781 27.179688 -51.109375 32.703125 -51.109375 Z M 32.703125 -51.109375 "/></g></g></g><g fill="#3d3b3a" fill-opacity="1"><g transform="translate(178.985079, 189.169223)"><g><path d="M 23.859375 0.328125 C 22.304688 0.328125 20.566406 0.242188 18.640625 0.078125 C 17.890625 0.0234375 16.960938 -0.0234375 15.859375 -0.078125 C 14.765625 -0.128906 13.550781 -0.15625 12.21875 -0.15625 L 6.90625 -0.078125 C 5.945312 -0.0234375 4.609375 0 2.890625 0 C 2.785156 0 2.734375 -0.160156 2.734375 -0.484375 C 2.734375 -0.804688 2.785156 -0.96875 2.890625 -0.96875 C 4.984375 -0.96875 6.523438 -1.097656 7.515625 -1.359375 C 8.503906 -1.628906 9.1875 -2.148438 9.5625 -2.921875 C 9.9375 -3.703125 10.125 -4.898438 10.125 -6.515625 L 10.125 -43.71875 C 10.125 -45.320312 9.945312 -46.5 9.59375 -47.25 C 9.25 -48 8.582031 -48.519531 7.59375 -48.8125 C 6.601562 -49.113281 5.0625 -49.265625 2.96875 -49.265625 C 2.863281 -49.265625 2.8125 -49.421875 2.8125 -49.734375 C 2.8125 -50.054688 2.863281 -50.21875 2.96875 -50.21875 L 6.90625 -50.140625 C 9.15625 -50.035156 10.925781 -49.984375 12.21875 -49.984375 C 14.09375 -49.984375 15.992188 -50.0625 17.921875 -50.21875 C 20.273438 -50.332031 21.878906 -50.390625 22.734375 -50.390625 C 28.359375 -50.390625 33.34375 -49.316406 37.6875 -47.171875 C 42.03125 -45.023438 45.390625 -42.101562 47.765625 -38.40625 C 50.148438 -34.707031 51.34375 -30.554688 51.34375 -25.953125 C 51.34375 -20.753906 50.097656 -16.160156 47.609375 -12.171875 C 45.117188 -8.179688 41.785156 -5.097656 37.609375 -2.921875 C 33.429688 -0.753906 28.847656 0.328125 23.859375 0.328125 Z M 23.0625 -0.71875 C 27.5625 -0.71875 31.550781 -1.628906 35.03125 -3.453125 C 38.519531 -5.273438 41.238281 -7.953125 43.1875 -11.484375 C 45.144531 -15.023438 46.125 -19.257812 46.125 -24.1875 C 46.125 -28.90625 45.195312 -33.164062 43.34375 -36.96875 C 41.5 -40.769531 38.847656 -43.78125 35.390625 -46 C 31.941406 -48.226562 27.96875 -49.34375 23.46875 -49.34375 C 21.101562 -49.34375 19.289062 -49.207031 18.03125 -48.9375 C 16.78125 -48.664062 15.859375 -48.113281 15.265625 -47.28125 C 14.679688 -46.457031 14.390625 -45.21875 14.390625 -43.5625 L 14.390625 -7.390625 C 14.390625 -5.785156 14.628906 -4.5 15.109375 -3.53125 C 15.585938 -2.570312 16.441406 -1.863281 17.671875 -1.40625 C 18.910156 -0.945312 20.707031 -0.71875 23.0625 -0.71875 Z M 23.0625 -0.71875 "/></g></g></g><g clip-path="url(#a491638a0c)"><g clip-path="url(#b9c7cfa24d)"><g clip-path="url(#f76e85ced3)"><path fill="#ffffff" d="M 194.753906 124.605469 L 206.828125 131.890625 L 179.527344 177.128906 L 167.453125 169.839844 Z M 194.753906 124.605469 " fill-opacity="1" fill-rule="nonzero"/></g></g></g><g clip-path="url(#89bea94406)"><g clip-path="url(#7716efb3ac)"><g clip-path="url(#89cbccc7f9)"><path fill="#ffffff" d="M 178.839844 131.804688 L 195.296875 141.738281 L 185.171875 158.511719 L 168.714844 148.582031 Z M 178.839844 131.804688 " fill-opacity="1" fill-rule="nonzero"/></g></g></g><g clip-path="url(#b5712c49e8)"><g clip-path="url(#5e9a4ea734)"><g clip-path="url(#6a8c26fe6a)"><path fill="#ffffff" d="M 197.007812 133.59375 L 213.445312 143.515625 L 204.40625 158.492188 L 187.96875 148.570312 Z M 197.007812 133.59375 " fill-opacity="1" fill-rule="nonzero"/></g></g></g><path stroke-linecap="butt" transform="matrix(0.431053, -0.613753, 0.613753, 0.431053, 162.46394, 183.096667)" fill="none" stroke-linejoin="miter" d="M 0.000741499 1.000182 L 116.884805 0.999484 " stroke="#3d3b3a" stroke-width="2" stroke-opacity="1" stroke-miterlimit="4"/><g fill="#3d3b3a" fill-opacity="1"><g transform="translate(132.188747, 262.353404)"><g><path d="M 9.6875 -7.859375 C 9.695312 -7.859375 9.703125 -7.832031 9.703125 -7.78125 C 9.703125 -7.726562 9.695312 -7.703125 9.6875 -7.703125 C 9.414062 -7.703125 9.21875 -7.644531 9.09375 -7.53125 C 8.96875 -7.425781 8.878906 -7.207031 8.828125 -6.875 L 7.96875 -1.015625 C 7.9375 -0.867188 7.921875 -0.738281 7.921875 -0.625 C 7.921875 -0.4375 7.96875 -0.3125 8.0625 -0.25 C 8.164062 -0.1875 8.34375 -0.15625 8.59375 -0.15625 C 8.613281 -0.15625 8.625 -0.128906 8.625 -0.078125 C 8.625 -0.0234375 8.613281 0 8.59375 0 C 8.351562 0 8.164062 -0.00390625 8.03125 -0.015625 L 7.1875 -0.03125 L 6.375 -0.015625 C 6.226562 -0.00390625 6.035156 0 5.796875 0 C 5.773438 0 5.765625 -0.0234375 5.765625 -0.078125 C 5.765625 -0.128906 5.773438 -0.15625 5.796875 -0.15625 C 6.035156 -0.15625 6.210938 -0.175781 6.328125 -0.21875 C 6.441406 -0.257812 6.523438 -0.335938 6.578125 -0.453125 C 6.640625 -0.566406 6.691406 -0.753906 6.734375 -1.015625 L 7.625 -7 L 4.21875 -0.09375 C 4.195312 -0.0507812 4.164062 -0.03125 4.125 -0.03125 C 4.070312 -0.03125 4.039062 -0.0507812 4.03125 -0.09375 L 2.640625 -6.703125 L 1.71875 -1.640625 C 1.6875 -1.472656 1.671875 -1.300781 1.671875 -1.125 C 1.671875 -0.8125 1.726562 -0.570312 1.84375 -0.40625 C 1.96875 -0.238281 2.144531 -0.15625 2.375 -0.15625 C 2.40625 -0.15625 2.421875 -0.128906 2.421875 -0.078125 C 2.421875 -0.0234375 2.40625 0 2.375 0 C 2.1875 0 2.035156 -0.00390625 1.921875 -0.015625 L 1.25 -0.03125 L 0.65625 -0.015625 C 0.539062 -0.00390625 0.375 0 0.15625 0 C 0.132812 0 0.125 -0.0234375 0.125 -0.078125 C 0.125 -0.128906 0.132812 -0.15625 0.15625 -0.15625 C 0.445312 -0.15625 0.703125 -0.285156 0.921875 -0.546875 C 1.140625 -0.804688 1.289062 -1.15625 1.375 -1.59375 L 2.421875 -7.265625 C 2.242188 -7.554688 1.945312 -7.703125 1.53125 -7.703125 C 1.507812 -7.703125 1.5 -7.726562 1.5 -7.78125 C 1.5 -7.832031 1.507812 -7.859375 1.53125 -7.859375 C 1.65625 -7.859375 1.757812 -7.851562 1.84375 -7.84375 L 3.078125 -7.84375 C 3.171875 -7.851562 3.273438 -7.859375 3.390625 -7.859375 C 3.484375 -7.859375 3.554688 -7.816406 3.609375 -7.734375 C 3.671875 -7.648438 3.726562 -7.472656 3.78125 -7.203125 L 4.875 -2.015625 L 7.578125 -7.546875 C 7.617188 -7.640625 7.679688 -7.710938 7.765625 -7.765625 C 7.847656 -7.828125 7.9375 -7.859375 8.03125 -7.859375 C 8.15625 -7.859375 8.253906 -7.851562 8.328125 -7.84375 L 9.34375 -7.84375 C 9.414062 -7.851562 9.53125 -7.859375 9.6875 -7.859375 Z M 9.6875 -7.859375 "/></g></g></g><g fill="#3d3b3a" fill-opacity="1"><g transform="translate(145.289582, 262.353404)"><g><path d="M 5.21875 -0.96875 C 5.226562 -0.976562 5.238281 -0.984375 5.25 -0.984375 C 5.28125 -0.984375 5.300781 -0.96875 5.3125 -0.9375 C 5.332031 -0.90625 5.335938 -0.882812 5.328125 -0.875 C 4.785156 -0.21875 4.3125 0.109375 3.90625 0.109375 C 3.6875 0.109375 3.523438 0.0507812 3.421875 -0.0625 C 3.328125 -0.1875 3.28125 -0.378906 3.28125 -0.640625 C 3.28125 -0.785156 3.296875 -0.945312 3.328125 -1.125 L 3.46875 -1.96875 C 3.15625 -1.300781 2.773438 -0.78125 2.328125 -0.40625 C 1.890625 -0.03125 1.460938 0.15625 1.046875 0.15625 C 0.785156 0.15625 0.578125 0.078125 0.421875 -0.078125 C 0.273438 -0.234375 0.203125 -0.472656 0.203125 -0.796875 C 0.203125 -1.359375 0.390625 -1.972656 0.765625 -2.640625 C 1.140625 -3.304688 1.597656 -3.867188 2.140625 -4.328125 C 2.691406 -4.785156 3.210938 -5.015625 3.703125 -5.015625 C 3.847656 -5.015625 4.003906 -4.988281 4.171875 -4.9375 C 4.335938 -4.882812 4.476562 -4.800781 4.59375 -4.6875 C 4.75 -4.8125 4.878906 -4.957031 4.984375 -5.125 C 4.992188 -5.132812 5.007812 -5.140625 5.03125 -5.140625 C 5.050781 -5.140625 5.070312 -5.128906 5.09375 -5.109375 C 5.125 -5.097656 5.132812 -5.085938 5.125 -5.078125 L 4.40625 -1.125 C 4.375 -1.007812 4.359375 -0.910156 4.359375 -0.828125 C 4.359375 -0.628906 4.421875 -0.53125 4.546875 -0.53125 C 4.703125 -0.53125 4.925781 -0.675781 5.21875 -0.96875 Z M 1.84375 -0.75 C 2.09375 -0.75 2.347656 -0.878906 2.609375 -1.140625 C 2.878906 -1.410156 3.113281 -1.734375 3.3125 -2.109375 C 3.507812 -2.492188 3.640625 -2.851562 3.703125 -3.1875 C 3.722656 -3.320312 3.734375 -3.445312 3.734375 -3.5625 C 3.734375 -3.832031 3.671875 -4.039062 3.546875 -4.1875 C 3.429688 -4.332031 3.265625 -4.40625 3.046875 -4.40625 C 2.660156 -4.40625 2.316406 -4.195312 2.015625 -3.78125 C 1.722656 -3.363281 1.515625 -2.820312 1.390625 -2.15625 C 1.347656 -1.894531 1.328125 -1.695312 1.328125 -1.5625 C 1.328125 -1.28125 1.375 -1.070312 1.46875 -0.9375 C 1.5625 -0.8125 1.6875 -0.75 1.84375 -0.75 Z M 1.84375 -0.75 "/></g></g></g><g fill="#3d3b3a" fill-opacity="1"><g transform="translate(154.644782, 262.353404)"><g><path d="M 5.203125 -0.9375 C 5.210938 -0.945312 5.226562 -0.953125 5.25 -0.953125 C 5.28125 -0.953125 5.300781 -0.9375 5.3125 -0.90625 C 5.332031 -0.882812 5.332031 -0.863281 5.3125 -0.84375 C 4.757812 -0.207031 4.316406 0.109375 3.984375 0.109375 C 3.765625 0.109375 3.570312 0.0507812 3.40625 -0.0625 C 3.25 -0.1875 3.070312 -0.410156 2.875 -0.734375 L 2.140625 -1.9375 C 2.078125 -2.039062 2.019531 -2.113281 1.96875 -2.15625 C 1.925781 -2.195312 1.878906 -2.21875 1.828125 -2.21875 L 1.453125 -0.15625 C 1.410156 0.0078125 1.175781 0.09375 0.75 0.09375 C 0.476562 0.09375 0.34375 0.0625 0.34375 0 L 0.390625 -0.265625 C 0.472656 -0.660156 0.519531 -0.882812 0.53125 -0.9375 L 1.703125 -7.40625 C 1.734375 -7.570312 1.75 -7.710938 1.75 -7.828125 C 1.75 -8.066406 1.671875 -8.1875 1.515625 -8.1875 C 1.410156 -8.1875 1.234375 -8.128906 0.984375 -8.015625 L 0.96875 -8.015625 C 0.9375 -8.015625 0.910156 -8.035156 0.890625 -8.078125 C 0.878906 -8.128906 0.894531 -8.15625 0.9375 -8.15625 L 2.875 -9.125 L 2.90625 -9.125 C 2.9375 -9.125 2.96875 -9.113281 3 -9.09375 C 3.03125 -9.070312 3.039062 -9.046875 3.03125 -9.015625 L 2.15625 -4.140625 C 2.457031 -4.410156 2.78125 -4.625 3.125 -4.78125 C 3.476562 -4.9375 3.820312 -5.015625 4.15625 -5.015625 C 4.507812 -5.015625 4.742188 -4.9375 4.859375 -4.78125 C 4.984375 -4.632812 5.03125 -4.460938 5 -4.265625 C 4.957031 -3.953125 4.753906 -3.644531 4.390625 -3.34375 C 4.035156 -3.039062 3.554688 -2.773438 2.953125 -2.546875 L 3.75 -1.28125 C 3.914062 -1.007812 4.054688 -0.828125 4.171875 -0.734375 C 4.285156 -0.648438 4.40625 -0.609375 4.53125 -0.609375 C 4.71875 -0.609375 4.941406 -0.71875 5.203125 -0.9375 Z M 3.359375 -4.484375 C 3.023438 -4.484375 2.722656 -4.304688 2.453125 -3.953125 C 2.179688 -3.609375 1.992188 -3.148438 1.890625 -2.578125 L 1.875 -2.484375 C 2.519531 -2.628906 2.984375 -2.828125 3.265625 -3.078125 C 3.554688 -3.328125 3.703125 -3.640625 3.703125 -4.015625 C 3.703125 -4.328125 3.585938 -4.484375 3.359375 -4.484375 Z M 3.359375 -4.484375 "/></g></g></g><g fill="#3d3b3a" fill-opacity="1"><g transform="translate(163.597758, 262.353404)"><g><path d="M 3.390625 -5.015625 C 3.710938 -5.015625 3.960938 -4.957031 4.140625 -4.84375 C 4.316406 -4.738281 4.40625 -4.59375 4.40625 -4.40625 C 4.40625 -4.03125 4.125 -3.675781 3.5625 -3.34375 C 3.007812 -3.007812 2.335938 -2.765625 1.546875 -2.609375 C 1.523438 -2.429688 1.515625 -2.253906 1.515625 -2.078125 C 1.515625 -1.578125 1.617188 -1.171875 1.828125 -0.859375 C 2.035156 -0.554688 2.34375 -0.40625 2.75 -0.40625 C 2.925781 -0.40625 3.117188 -0.4375 3.328125 -0.5 C 3.535156 -0.5625 3.722656 -0.660156 3.890625 -0.796875 L 3.90625 -0.796875 C 3.925781 -0.796875 3.945312 -0.78125 3.96875 -0.75 C 3.988281 -0.726562 3.988281 -0.707031 3.96875 -0.6875 C 3.664062 -0.394531 3.347656 -0.179688 3.015625 -0.046875 C 2.679688 0.0859375 2.347656 0.15625 2.015625 0.15625 C 1.429688 0.15625 0.992188 -0.0195312 0.703125 -0.375 C 0.421875 -0.726562 0.28125 -1.171875 0.28125 -1.703125 C 0.28125 -1.890625 0.300781 -2.097656 0.34375 -2.328125 C 0.425781 -2.773438 0.609375 -3.203125 0.890625 -3.609375 C 1.179688 -4.023438 1.546875 -4.363281 1.984375 -4.625 C 2.421875 -4.882812 2.890625 -5.015625 3.390625 -5.015625 Z M 3.125 -4.078125 C 3.132812 -4.109375 3.140625 -4.15625 3.140625 -4.21875 C 3.140625 -4.363281 3.101562 -4.472656 3.03125 -4.546875 C 2.96875 -4.628906 2.867188 -4.671875 2.734375 -4.671875 C 2.472656 -4.671875 2.238281 -4.5 2.03125 -4.15625 C 1.820312 -3.8125 1.671875 -3.363281 1.578125 -2.8125 C 2.535156 -3.0625 3.050781 -3.484375 3.125 -4.078125 Z M 3.125 -4.078125 "/></g></g></g><g fill="#3d3b3a" fill-opacity="1"><g transform="translate(171.859431, 262.353404)"><g><path d="M 5.609375 -1 C 5.617188 -1.007812 5.628906 -1.015625 5.640625 -1.015625 C 5.671875 -1.015625 5.691406 -1 5.703125 -0.96875 C 5.722656 -0.945312 5.722656 -0.921875 5.703125 -0.890625 C 5.398438 -0.535156 5.128906 -0.28125 4.890625 -0.125 C 4.660156 0.03125 4.421875 0.109375 4.171875 0.109375 C 3.773438 0.109375 3.578125 -0.109375 3.578125 -0.546875 C 3.578125 -0.671875 3.59375 -0.8125 3.625 -0.96875 L 3.828125 -2.109375 C 3.535156 -1.378906 3.195312 -0.816406 2.8125 -0.421875 C 2.425781 -0.0351562 2.019531 0.15625 1.59375 0.15625 C 1.019531 0.15625 0.734375 -0.1875 0.734375 -0.875 C 0.734375 -1.082031 0.753906 -1.289062 0.796875 -1.5 L 1.234375 -3.734375 C 1.253906 -3.859375 1.265625 -3.957031 1.265625 -4.03125 C 1.265625 -4.226562 1.195312 -4.328125 1.0625 -4.328125 C 0.976562 -4.328125 0.890625 -4.289062 0.796875 -4.21875 C 0.703125 -4.144531 0.578125 -4.035156 0.421875 -3.890625 C 0.398438 -3.867188 0.378906 -3.859375 0.359375 -3.859375 C 0.335938 -3.859375 0.316406 -3.875 0.296875 -3.90625 C 0.285156 -3.9375 0.289062 -3.960938 0.3125 -3.984375 C 0.59375 -4.316406 0.84375 -4.5625 1.0625 -4.71875 C 1.28125 -4.882812 1.503906 -4.96875 1.734375 -4.96875 C 2.148438 -4.96875 2.359375 -4.726562 2.359375 -4.25 C 2.359375 -4.132812 2.335938 -3.960938 2.296875 -3.734375 L 1.90625 -1.734375 C 1.863281 -1.546875 1.84375 -1.359375 1.84375 -1.171875 C 1.84375 -0.753906 1.972656 -0.546875 2.234375 -0.546875 C 2.472656 -0.546875 2.71875 -0.695312 2.96875 -1 C 3.21875 -1.3125 3.453125 -1.757812 3.671875 -2.34375 C 3.898438 -2.9375 4.085938 -3.644531 4.234375 -4.46875 L 4.28125 -4.703125 C 4.320312 -4.867188 4.554688 -4.953125 4.984375 -4.953125 C 5.117188 -4.953125 5.21875 -4.941406 5.28125 -4.921875 C 5.351562 -4.898438 5.390625 -4.878906 5.390625 -4.859375 L 5.34375 -4.59375 C 5.257812 -4.195312 5.210938 -3.972656 5.203125 -3.921875 L 4.6875 -1.125 C 4.675781 -1.039062 4.671875 -0.945312 4.671875 -0.84375 C 4.671875 -0.613281 4.738281 -0.5 4.875 -0.5 C 5.050781 -0.5 5.296875 -0.664062 5.609375 -1 Z M 5.609375 -1 "/></g></g></g><g fill="#3d3b3a" fill-opacity="1"><g transform="translate(181.616842, 262.353404)"><g><path d="M 3.578125 -4.9375 C 4.015625 -4.9375 4.34375 -4.820312 4.5625 -4.59375 C 4.789062 -4.375 4.90625 -4.050781 4.90625 -3.625 C 4.90625 -3.476562 4.894531 -3.332031 4.875 -3.1875 C 4.78125 -2.625 4.582031 -2.097656 4.28125 -1.609375 C 3.976562 -1.117188 3.601562 -0.722656 3.15625 -0.421875 C 2.71875 -0.128906 2.273438 0.015625 1.828125 0.015625 C 1.691406 0.015625 1.523438 0.00390625 1.328125 -0.015625 L 0.921875 2.234375 C 0.890625 2.441406 0.875 2.566406 0.875 2.609375 C 0.875 2.734375 0.898438 2.820312 0.953125 2.875 C 1.015625 2.925781 1.113281 2.953125 1.25 2.953125 C 1.289062 2.953125 1.378906 2.945312 1.515625 2.9375 C 1.546875 2.9375 1.566406 2.957031 1.578125 3 C 1.585938 3.039062 1.578125 3.0625 1.546875 3.0625 L -0.84375 3.453125 C -0.863281 3.460938 -0.878906 3.441406 -0.890625 3.390625 C -0.910156 3.347656 -0.90625 3.320312 -0.875 3.3125 C -0.695312 3.269531 -0.570312 3.21875 -0.5 3.15625 C -0.425781 3.101562 -0.367188 3.019531 -0.328125 2.90625 C -0.285156 2.789062 -0.238281 2.597656 -0.1875 2.328125 L 0.890625 -3.703125 C 0.710938 -3.597656 0.5 -3.453125 0.25 -3.265625 C 0.238281 -3.253906 0.226562 -3.25 0.21875 -3.25 C 0.175781 -3.25 0.144531 -3.265625 0.125 -3.296875 C 0.113281 -3.335938 0.125 -3.367188 0.15625 -3.390625 C 0.5 -3.660156 0.757812 -3.851562 0.9375 -3.96875 L 1.09375 -4.859375 C 1.09375 -4.867188 1.164062 -4.914062 1.3125 -5 C 1.539062 -5.144531 1.734375 -5.28125 1.890625 -5.40625 C 2.054688 -5.53125 2.160156 -5.675781 2.203125 -5.84375 C 2.210938 -5.875 2.238281 -5.882812 2.28125 -5.875 C 2.332031 -5.863281 2.351562 -5.84375 2.34375 -5.8125 L 2.125 -4.609375 C 2.625 -4.828125 3.109375 -4.9375 3.578125 -4.9375 Z M 3.734375 -2.765625 C 3.753906 -2.921875 3.765625 -3.035156 3.765625 -3.109375 C 3.765625 -3.460938 3.679688 -3.753906 3.515625 -3.984375 C 3.347656 -4.210938 3.082031 -4.328125 2.71875 -4.328125 C 2.488281 -4.328125 2.269531 -4.296875 2.0625 -4.234375 L 1.40625 -0.546875 C 1.6875 -0.421875 1.984375 -0.359375 2.296875 -0.359375 C 2.691406 -0.359375 3.003906 -0.570312 3.234375 -1 C 3.472656 -1.4375 3.640625 -2.023438 3.734375 -2.765625 Z M 3.734375 -2.765625 "/></g></g></g><g fill="#3d3b3a" fill-opacity="1"><g transform="translate(190.481835, 262.353404)"><g/></g></g><g fill="#3d3b3a" fill-opacity="1"><g transform="translate(197.197493, 262.353404)"><g><path d="M 7.203125 -0.15625 C 7.234375 -0.15625 7.25 -0.128906 7.25 -0.078125 C 7.25 -0.0234375 7.234375 0 7.203125 0 C 7.066406 0 6.859375 -0.0078125 6.578125 -0.03125 C 6.253906 -0.0390625 6 -0.046875 5.8125 -0.046875 C 5.625 -0.046875 5.378906 -0.0390625 5.078125 -0.03125 C 4.804688 -0.0078125 4.609375 0 4.484375 0 C 4.441406 0 4.421875 -0.0234375 4.421875 -0.078125 C 4.421875 -0.128906 4.441406 -0.15625 4.484375 -0.15625 C 4.734375 -0.15625 4.910156 -0.191406 5.015625 -0.265625 C 5.128906 -0.335938 5.1875 -0.46875 5.1875 -0.65625 C 5.1875 -0.789062 5.164062 -0.925781 5.125 -1.0625 L 4.765625 -2.875 L 2.328125 -2.875 L 1.640625 -1.625 C 1.421875 -1.226562 1.3125 -0.921875 1.3125 -0.703125 C 1.3125 -0.515625 1.390625 -0.375 1.546875 -0.28125 C 1.703125 -0.195312 1.945312 -0.15625 2.28125 -0.15625 C 2.3125 -0.15625 2.320312 -0.128906 2.3125 -0.078125 C 2.3125 -0.0234375 2.296875 0 2.265625 0 C 2.148438 0 1.9375 -0.0078125 1.625 -0.03125 C 1.238281 -0.0390625 0.941406 -0.046875 0.734375 -0.046875 C 0.554688 -0.046875 0.347656 -0.0390625 0.109375 -0.03125 C -0.117188 -0.0078125 -0.296875 0 -0.421875 0 C -0.460938 0 -0.484375 -0.0234375 -0.484375 -0.078125 C -0.484375 -0.128906 -0.460938 -0.15625 -0.421875 -0.15625 C -0.191406 -0.15625 0.078125 -0.285156 0.390625 -0.546875 C 0.710938 -0.816406 1.015625 -1.203125 1.296875 -1.703125 L 4.8125 -7.96875 C 4.820312 -8 4.851562 -8.015625 4.90625 -8.015625 C 4.925781 -8.015625 4.945312 -8.007812 4.96875 -8 C 5 -7.988281 5.019531 -7.976562 5.03125 -7.96875 L 6.40625 -1.0625 C 6.457031 -0.78125 6.5 -0.582031 6.53125 -0.46875 C 6.570312 -0.363281 6.640625 -0.285156 6.734375 -0.234375 C 6.835938 -0.179688 6.992188 -0.15625 7.203125 -0.15625 Z M 2.515625 -3.234375 L 4.6875 -3.234375 L 4.109375 -6.125 Z M 2.515625 -3.234375 "/></g></g></g><g fill="#3d3b3a" fill-opacity="1"><g transform="translate(208.576342, 262.353404)"><g><path d="M 3.734375 -4.96875 C 3.953125 -4.96875 4.160156 -4.882812 4.359375 -4.71875 C 4.554688 -4.5625 4.640625 -4.382812 4.609375 -4.1875 C 4.585938 -4.0625 4.523438 -3.941406 4.421875 -3.828125 C 4.328125 -3.722656 4.203125 -3.671875 4.046875 -3.671875 C 3.898438 -3.671875 3.738281 -3.742188 3.5625 -3.890625 C 3.5 -3.929688 3.4375 -3.96875 3.375 -4 C 3.320312 -4.03125 3.265625 -4.046875 3.203125 -4.046875 C 3.066406 -4.046875 2.890625 -3.820312 2.671875 -3.375 C 2.460938 -2.9375 2.265625 -2.410156 2.078125 -1.796875 C 1.890625 -1.179688 1.753906 -0.632812 1.671875 -0.15625 C 1.648438 -0.0703125 1.582031 -0.0078125 1.46875 0.03125 C 1.351562 0.0703125 1.1875 0.09375 0.96875 0.09375 C 0.6875 0.09375 0.546875 0.0625 0.546875 0 C 0.554688 -0.0625 0.582031 -0.1875 0.625 -0.375 C 0.675781 -0.570312 0.71875 -0.757812 0.75 -0.9375 L 1.265625 -3.734375 C 1.285156 -3.867188 1.296875 -3.957031 1.296875 -4 C 1.296875 -4.238281 1.21875 -4.359375 1.0625 -4.359375 C 0.894531 -4.359375 0.660156 -4.1875 0.359375 -3.84375 C 0.347656 -3.84375 0.332031 -3.84375 0.3125 -3.84375 C 0.28125 -3.84375 0.253906 -3.851562 0.234375 -3.875 C 0.222656 -3.90625 0.226562 -3.9375 0.25 -3.96875 C 0.550781 -4.3125 0.820312 -4.5625 1.0625 -4.71875 C 1.300781 -4.882812 1.539062 -4.96875 1.78125 -4.96875 C 1.988281 -4.96875 2.140625 -4.910156 2.234375 -4.796875 C 2.328125 -4.679688 2.375 -4.515625 2.375 -4.296875 C 2.375 -4.171875 2.363281 -4.035156 2.34375 -3.890625 L 2.09375 -2.5 C 2.582031 -4.144531 3.128906 -4.96875 3.734375 -4.96875 Z M 3.734375 -4.96875 "/></g></g></g><g fill="#3d3b3a" fill-opacity="1"><g transform="translate(216.825452, 262.353404)"><g><path d="M 3.828125 -4.859375 C 3.878906 -4.859375 3.90625 -4.816406 3.90625 -4.734375 C 3.90625 -4.671875 3.859375 -4.570312 3.765625 -4.4375 C 3.671875 -4.300781 3.582031 -4.234375 3.5 -4.234375 C 3.46875 -4.234375 3.328125 -4.253906 3.078125 -4.296875 C 2.835938 -4.335938 2.5625 -4.367188 2.25 -4.390625 L 1.71875 -1.390625 C 1.707031 -1.253906 1.703125 -1.164062 1.703125 -1.125 C 1.703125 -0.914062 1.753906 -0.765625 1.859375 -0.671875 C 1.960938 -0.585938 2.125 -0.546875 2.34375 -0.546875 C 2.65625 -0.546875 3.003906 -0.695312 3.390625 -1 L 3.40625 -1 C 3.4375 -1 3.460938 -0.988281 3.484375 -0.96875 C 3.515625 -0.945312 3.519531 -0.921875 3.5 -0.890625 C 3.113281 -0.523438 2.769531 -0.257812 2.46875 -0.09375 C 2.175781 0.0703125 1.878906 0.15625 1.578125 0.15625 C 0.898438 0.15625 0.5625 -0.148438 0.5625 -0.765625 C 0.5625 -0.890625 0.578125 -1.03125 0.609375 -1.1875 L 1.09375 -3.84375 C 1.113281 -3.988281 1.125 -4.109375 1.125 -4.203125 C 1.125 -4.328125 1.09375 -4.410156 1.03125 -4.453125 C 0.96875 -4.492188 0.847656 -4.515625 0.671875 -4.515625 C 0.640625 -4.515625 0.625 -4.546875 0.625 -4.609375 C 0.625 -4.679688 0.640625 -4.71875 0.671875 -4.71875 C 1.335938 -4.71875 1.867188 -5.085938 2.265625 -5.828125 C 2.285156 -5.847656 2.316406 -5.859375 2.359375 -5.859375 C 2.398438 -5.859375 2.4375 -5.847656 2.46875 -5.828125 C 2.5 -5.816406 2.507812 -5.800781 2.5 -5.78125 L 2.3125 -4.75 C 2.550781 -4.757812 2.753906 -4.769531 2.921875 -4.78125 C 3.085938 -4.800781 3.226562 -4.8125 3.34375 -4.8125 C 3.5625 -4.84375 3.722656 -4.859375 3.828125 -4.859375 Z M 3.828125 -4.859375 "/></g></g></g><g fill="#3d3b3a" fill-opacity="1"><g transform="translate(224.383254, 262.353404)"><g><path d="M 2.171875 -6.28125 C 1.953125 -6.28125 1.773438 -6.34375 1.640625 -6.46875 C 1.515625 -6.601562 1.453125 -6.78125 1.453125 -7 C 1.453125 -7.207031 1.515625 -7.375 1.640625 -7.5 C 1.773438 -7.625 1.953125 -7.6875 2.171875 -7.6875 C 2.390625 -7.6875 2.5625 -7.625 2.6875 -7.5 C 2.8125 -7.375 2.875 -7.207031 2.875 -7 C 2.875 -6.769531 2.8125 -6.59375 2.6875 -6.46875 C 2.5625 -6.34375 2.390625 -6.28125 2.171875 -6.28125 Z M 1.328125 0.109375 C 0.929688 0.109375 0.734375 -0.125 0.734375 -0.59375 C 0.734375 -0.71875 0.753906 -0.894531 0.796875 -1.125 L 1.3125 -3.734375 C 1.332031 -3.847656 1.34375 -3.945312 1.34375 -4.03125 C 1.34375 -4.132812 1.320312 -4.210938 1.28125 -4.265625 C 1.238281 -4.328125 1.1875 -4.359375 1.125 -4.359375 C 0.945312 -4.359375 0.707031 -4.1875 0.40625 -3.84375 C 0.394531 -3.84375 0.378906 -3.84375 0.359375 -3.84375 C 0.328125 -3.84375 0.300781 -3.851562 0.28125 -3.875 C 0.269531 -3.90625 0.273438 -3.9375 0.296875 -3.96875 C 0.585938 -4.3125 0.851562 -4.5625 1.09375 -4.71875 C 1.34375 -4.882812 1.585938 -4.96875 1.828125 -4.96875 C 2.222656 -4.96875 2.421875 -4.75 2.421875 -4.3125 C 2.421875 -4.164062 2.40625 -4.023438 2.375 -3.890625 L 1.84375 -1.125 C 1.832031 -1.039062 1.828125 -0.941406 1.828125 -0.828125 C 1.828125 -0.628906 1.890625 -0.53125 2.015625 -0.53125 C 2.097656 -0.53125 2.191406 -0.566406 2.296875 -0.640625 C 2.398438 -0.710938 2.523438 -0.820312 2.671875 -0.96875 C 2.691406 -0.988281 2.710938 -1 2.734375 -1 C 2.753906 -1 2.769531 -0.984375 2.78125 -0.953125 C 2.800781 -0.921875 2.800781 -0.894531 2.78125 -0.875 C 2.5 -0.53125 2.242188 -0.28125 2.015625 -0.125 C 1.796875 0.03125 1.566406 0.109375 1.328125 0.109375 Z M 1.328125 0.109375 "/></g></g></g><g fill="#3d3b3a" fill-opacity="1"><g transform="translate(231.262312, 262.353404)"><g><path d="M 1.359375 0.140625 C 0.992188 0.140625 0.6875 0.0625 0.4375 -0.09375 C 0.1875 -0.257812 0.0625 -0.453125 0.0625 -0.671875 C 0.0625 -0.867188 0.113281 -1.019531 0.21875 -1.125 C 0.332031 -1.226562 0.46875 -1.28125 0.625 -1.28125 C 0.769531 -1.28125 0.882812 -1.242188 0.96875 -1.171875 C 1.050781 -1.097656 1.144531 -0.976562 1.25 -0.8125 C 1.363281 -0.632812 1.46875 -0.503906 1.5625 -0.421875 C 1.65625 -0.335938 1.789062 -0.296875 1.96875 -0.296875 C 2.101562 -0.296875 2.207031 -0.332031 2.28125 -0.40625 C 2.351562 -0.488281 2.398438 -0.617188 2.421875 -0.796875 C 2.429688 -0.828125 2.4375 -0.875 2.4375 -0.9375 C 2.4375 -1.1875 2.363281 -1.398438 2.21875 -1.578125 C 2.082031 -1.753906 1.863281 -1.957031 1.5625 -2.1875 C 1.257812 -2.4375 1.035156 -2.648438 0.890625 -2.828125 C 0.742188 -3.015625 0.671875 -3.234375 0.671875 -3.484375 C 0.671875 -3.535156 0.675781 -3.609375 0.6875 -3.703125 C 0.726562 -3.921875 0.832031 -4.125 1 -4.3125 C 1.175781 -4.507812 1.398438 -4.671875 1.671875 -4.796875 C 1.953125 -4.921875 2.25 -4.984375 2.5625 -4.984375 C 2.96875 -4.984375 3.28125 -4.914062 3.5 -4.78125 C 3.726562 -4.644531 3.828125 -4.457031 3.796875 -4.21875 C 3.773438 -4.0625 3.707031 -3.9375 3.59375 -3.84375 C 3.476562 -3.75 3.359375 -3.703125 3.234375 -3.703125 C 3.054688 -3.703125 2.925781 -3.742188 2.84375 -3.828125 C 2.757812 -3.910156 2.679688 -4.023438 2.609375 -4.171875 C 2.535156 -4.328125 2.460938 -4.441406 2.390625 -4.515625 C 2.316406 -4.585938 2.195312 -4.625 2.03125 -4.625 C 1.894531 -4.625 1.785156 -4.582031 1.703125 -4.5 C 1.628906 -4.425781 1.585938 -4.335938 1.578125 -4.234375 C 1.566406 -4.203125 1.5625 -4.15625 1.5625 -4.09375 C 1.5625 -3.875 1.628906 -3.675781 1.765625 -3.5 C 1.910156 -3.332031 2.128906 -3.132812 2.421875 -2.90625 C 2.742188 -2.644531 2.976562 -2.421875 3.125 -2.234375 C 3.28125 -2.046875 3.359375 -1.828125 3.359375 -1.578125 C 3.359375 -1.535156 3.347656 -1.460938 3.328125 -1.359375 C 3.285156 -1.128906 3.175781 -0.898438 3 -0.671875 C 2.820312 -0.441406 2.585938 -0.25 2.296875 -0.09375 C 2.015625 0.0625 1.703125 0.140625 1.359375 0.140625 Z M 1.359375 0.140625 "/></g></g></g><g fill="#3d3b3a" fill-opacity="1"><g transform="translate(239.008644, 262.353404)"><g><path d="M 3.828125 -4.859375 C 3.878906 -4.859375 3.90625 -4.816406 3.90625 -4.734375 C 3.90625 -4.671875 3.859375 -4.570312 3.765625 -4.4375 C 3.671875 -4.300781 3.582031 -4.234375 3.5 -4.234375 C 3.46875 -4.234375 3.328125 -4.253906 3.078125 -4.296875 C 2.835938 -4.335938 2.5625 -4.367188 2.25 -4.390625 L 1.71875 -1.390625 C 1.707031 -1.253906 1.703125 -1.164062 1.703125 -1.125 C 1.703125 -0.914062 1.753906 -0.765625 1.859375 -0.671875 C 1.960938 -0.585938 2.125 -0.546875 2.34375 -0.546875 C 2.65625 -0.546875 3.003906 -0.695312 3.390625 -1 L 3.40625 -1 C 3.4375 -1 3.460938 -0.988281 3.484375 -0.96875 C 3.515625 -0.945312 3.519531 -0.921875 3.5 -0.890625 C 3.113281 -0.523438 2.769531 -0.257812 2.46875 -0.09375 C 2.175781 0.0703125 1.878906 0.15625 1.578125 0.15625 C 0.898438 0.15625 0.5625 -0.148438 0.5625 -0.765625 C 0.5625 -0.890625 0.578125 -1.03125 0.609375 -1.1875 L 1.09375 -3.84375 C 1.113281 -3.988281 1.125 -4.109375 1.125 -4.203125 C 1.125 -4.328125 1.09375 -4.410156 1.03125 -4.453125 C 0.96875 -4.492188 0.847656 -4.515625 0.671875 -4.515625 C 0.640625 -4.515625 0.625 -4.546875 0.625 -4.609375 C 0.625 -4.679688 0.640625 -4.71875 0.671875 -4.71875 C 1.335938 -4.71875 1.867188 -5.085938 2.265625 -5.828125 C 2.285156 -5.847656 2.316406 -5.859375 2.359375 -5.859375 C 2.398438 -5.859375 2.4375 -5.847656 2.46875 -5.828125 C 2.5 -5.816406 2.507812 -5.800781 2.5 -5.78125 L 2.3125 -4.75 C 2.550781 -4.757812 2.753906 -4.769531 2.921875 -4.78125 C 3.085938 -4.800781 3.226562 -4.8125 3.34375 -4.8125 C 3.5625 -4.84375 3.722656 -4.859375 3.828125 -4.859375 Z M 3.828125 -4.859375 "/></g></g></g></svg>